<svg width="96" height="96" viewBox="0 0 96 96" fill="none" xmlns="http://www.w3.org/2000/svg" role="img" aria-label="zargx icon option 3">
  <path d="M48 8L82 20V45C82 65 68 80 48 88C28 80 14 65 14 45V20L48 8Z" fill="#F8FBF2" stroke="#183F42" stroke-width="4" stroke-linejoin="round"/>
  <path d="M22 45C30 38 38 38 46 45C54 52 63 52 74 44" stroke="#1E8CA0" stroke-width="6" stroke-linecap="round"/>
  <path d="M22 60C31 54 40 54 49 60C57 65 65 65 74 60" stroke="#41B7AB" stroke-width="6" stroke-linecap="round"/>
  <path d="M46 23C39 31 37 42 41 53C48 46 55 39 66 35C58 31 52 28 46 23Z" fill="#A97827"/>
  <path d="M44 26C48 40 48 53 44 70" stroke="#62491D" stroke-width="4" stroke-linecap="round"/>
  <path d="M44 38C39 36 34 35 29 36M45 48C51 46 56 46 62 47M43 58C38 58 33 60 29 63" stroke="#62491D" stroke-width="4" stroke-linecap="round"/>
</svg>
