<svg width="96" height="96" viewBox="0 0 96 96" fill="none" xmlns="http://www.w3.org/2000/svg" role="img" aria-label="zargx icon option 2">
  <rect width="96" height="96" rx="24" fill="#102F38"/>
  <path d="M14 56C23 46 34 46 43 56C51 64 61 65 71 57C75 54 79 52 84 53" stroke="#7CE0D6" stroke-width="6" stroke-linecap="round"/>
  <path d="M14 71C24 65 34 65 44 71C52 76 62 76 72 71C76 69 80 68 84 69" stroke="#2A9BA8" stroke-width="6" stroke-linecap="round"/>
  <path d="M31 23C40 18 51 20 59 29C66 37 68 49 63 59C55 54 49 48 46 40C43 50 37 56 27 60C24 48 25 34 31 23Z" fill="#D19A35"/>
  <path d="M46 25C47 38 46 50 42 64" stroke="#5F4519" stroke-width="4" stroke-linecap="round"/>
  <path d="M45 37C39 34 34 33 28 34M44 45C51 43 56 42 62 43M41 53C36 54 31 56 27 59" stroke="#5F4519" stroke-width="4" stroke-linecap="round"/>
  <circle cx="73" cy="24" r="5" fill="#F6C04A"/>
</svg>
