<svg width="96" height="96" viewBox="0 0 96 96" fill="none" xmlns="http://www.w3.org/2000/svg" role="img" aria-label="zargx icon option 5">
  <circle cx="48" cy="48" r="39" fill="#F5FAF6" stroke="#173D44" stroke-width="4"/>
  <path d="M48 13L53 25L48 22L43 25L48 13Z" fill="#C1832E"/>
  <path d="M20 50C28 42 37 42 45 50C54 58 64 58 76 49" stroke="#17899B" stroke-width="6" stroke-linecap="round"/>
  <path d="M20 65C30 58 40 58 49 65C57 70 66 70 76 65" stroke="#31B6AB" stroke-width="6" stroke-linecap="round"/>
  <path d="M55 24C46 33 43 45 48 58C55 50 63 43 74 39C66 32 60 28 55 24Z" fill="#B17A27"/>
  <path d="M53 27C56 41 55 56 50 75" stroke="#5C481B" stroke-width="4" stroke-linecap="round"/>
  <path d="M52 41C46 38 40 37 34 39M52 51C59 49 64 49 70 51M49 61C43 62 38 65 33 69" stroke="#5C481B" stroke-width="4" stroke-linecap="round"/>
</svg>
