<svg width="96" height="96" viewBox="0 0 96 96" fill="none" xmlns="http://www.w3.org/2000/svg" role="img" aria-label="zargx icon option 4">
  <rect x="10" y="10" width="76" height="76" rx="16" fill="#EDF8F6" stroke="#173D44" stroke-width="4"/>
  <rect x="19" y="29" width="10" height="10" rx="2" fill="#128499"/>
  <rect x="31" y="29" width="10" height="10" rx="2" fill="#128499"/>
  <rect x="43" y="31" width="10" height="10" rx="2" fill="#26AAA8"/>
  <rect x="55" y="33" width="10" height="10" rx="2" fill="#26AAA8"/>
  <rect x="67" y="31" width="10" height="10" rx="2" fill="#128499"/>
  <path d="M18 53C27 47 37 48 46 54C55 60 65 60 78 53" stroke="#0F5966" stroke-width="6" stroke-linecap="round"/>
  <path d="M43 22C37 31 35 43 39 56C45 49 54 42 67 38C58 33 50 29 43 22Z" fill="#BA852F"/>
  <path d="M42 27C45 40 45 53 41 71" stroke="#65511F" stroke-width="4" stroke-linecap="round"/>
  <path d="M41 41C35 39 30 39 24 41M42 50C49 49 55 49 62 51M40 60C34 61 29 63 24 67" stroke="#65511F" stroke-width="4" stroke-linecap="round"/>
</svg>
