<svg width="96" height="96" viewBox="0 0 96 96" fill="none" xmlns="http://www.w3.org/2000/svg" role="img" aria-label="zargx icon option 6">
  <rect x="9" y="9" width="78" height="78" rx="22" fill="#F9FCF8" stroke="#123D43" stroke-width="4"/>
  <path d="M18 48C26 40 36 40 44 48C53 56 64 56 78 47" stroke="#16899A" stroke-width="6" stroke-linecap="round"/>
  <path d="M18 62C28 56 38 56 48 62C57 67 67 67 78 62" stroke="#16899A" stroke-width="6" stroke-linecap="round" opacity=".65"/>
  <path d="M48 24C41 34 40 45 46 57C51 48 59 41 69 36C60 33 53 29 48 24Z" stroke="#A77427" stroke-width="5" stroke-linejoin="round"/>
  <path d="M47 27C51 42 51 56 46 72" stroke="#A77427" stroke-width="5" stroke-linecap="round"/>
  <path d="M47 41C41 38 36 37 31 38M48 51C54 49 60 49 65 51M46 60C40 61 35 64 30 68" stroke="#A77427" stroke-width="5" stroke-linecap="round"/>
</svg>
